<?xml version="1.0" standalone="no"?>
<!DOCTYPE svg PUBLIC "-//W3C//DTD SVG 20010904//EN"
 "http://www.w3.org/TR/2001/REC-SVG-20010904/DTD/svg10.dtd">
<svg version="1.0" xmlns="http://www.w3.org/2000/svg"
 width="657.000000pt" height="531.000000pt" viewBox="0 0 657.000000 531.000000"
 preserveAspectRatio="xMidYMid meet">

<g transform="translate(0.000000,531.000000) scale(0.100000,-0.100000)"
fill="#000000" stroke="none">
<path d="M3043 4933 c-52 -4 -68 -15 -38 -27 14 -5 40 -55 32 -62 -1 -2 -19 2
-38 9 -37 13 -69 38 -69 55 0 11 -197 -29 -285 -58 -57 -19 -48 -19 41 -4 35
7 51 -8 60 -56 6 -26 4 -32 -7 -28 -8 3 -13 13 -11 22 5 26 -17 46 -49 46 -34
0 -47 -16 -19 -25 11 -3 20 -11 20 -16 0 -12 -7 -11 -33 5 -12 8 -44 17 -72
21 -47 6 -49 6 -30 -10 19 -16 19 -16 -16 -10 -49 7 -69 -2 -70 -34 l0 -26
-15 22 -15 21 -91 -41 c-62 -28 -94 -49 -101 -65 -9 -19 -12 -21 -17 -8 -4 13
-23 5 -105 -45 -226 -137 -413 -294 -564 -474 -84 -100 -84 -100 -70 -127 17
-33 31 -39 51 -21 11 9 24 13 35 8 14 -6 9 -11 -27 -27 -24 -10 -47 -24 -51
-30 -4 -7 -9 -6 -14 2 -4 6 -4 14 -1 17 3 3 1 14 -5 24 -8 15 -14 17 -29 9
-11 -6 -20 -20 -20 -31 0 -11 -4 -18 -8 -15 -19 11 -202 -312 -202 -357 0 -26
55 -73 80 -69 10 2 9 -2 -4 -13 -23 -17 -40 -20 -31 -4 4 6 -3 13 -14 16 -12
3 -27 19 -34 35 l-12 29 -22 -56 c-21 -55 -21 -56 -1 -49 16 5 14 0 -10 -23
-29 -28 -43 -57 -48 -101 -1 -13 -7 -28 -12 -35 -11 -14 -52 -165 -52 -190 0
-24 15 -21 27 5 9 20 10 18 11 -15 1 -30 -3 -38 -26 -49 -20 -10 -28 -24 -35
-56 -9 -48 -3 -77 14 -66 7 4 10 1 7 -7 -3 -8 -12 -13 -22 -11 -11 2 -16 -4
-16 -23 0 -14 4 -25 9 -25 21 0 41 13 41 26 0 11 4 12 20 4 14 -8 45 -3 125
19 58 15 109 31 112 35 3 3 7 21 8 38 1 18 5 40 8 48 19 50 76 273 72 280 -3
5 2 15 10 24 17 17 55 101 55 122 0 8 4 14 9 14 15 0 31 58 25 93 -4 30 -4 31
6 7 11 -24 12 -23 41 30 16 30 53 90 80 132 29 44 48 82 44 89 -5 7 -3 10 6 7
8 -3 36 23 67 61 54 67 220 241 229 241 3 0 26 17 52 39 145 121 403 265 601
335 78 27 98 39 110 62 14 29 15 29 18 5 3 -19 8 -22 30 -17 136 29 221 46
240 46 25 0 25 0 12 34 -6 17 -6 26 0 26 6 0 10 -4 10 -10 0 -5 11 -10 24 -10
28 0 43 -16 24 -23 -18 -8 75 -6 152 2 50 6 60 9 45 16 -11 5 -27 18 -36 28
-14 18 -18 18 -45 5 -41 -21 -84 -30 -84 -19 0 14 34 31 59 31 25 0 37 18 22
33 -9 9 -14 9 -19 1 -10 -17 -49 1 -57 25 -3 12 -15 21 -26 21 -23 0 -25 13
-5 30 12 9 17 7 28 -9 7 -12 18 -21 25 -21 7 0 13 -7 13 -15 0 -18 12 -19 28
-3 10 10 16 7 28 -11 9 -12 22 -20 30 -17 8 3 14 1 14 -3 0 -5 14 -14 30 -20
26 -8 30 -14 24 -34 -3 -14 -1 -28 6 -32 6 -4 59 -11 118 -16 394 -33 788
-191 1093 -437 42 -34 126 -113 186 -176 l111 -115 78 22 c44 11 81 25 82 29
2 5 8 6 13 3 7 -5 118 22 128 31 9 9 -159 200 -275 313 l-128 124 -13 -39 -13
-39 4 42 c5 49 1 53 -134 145 -135 92 -224 140 -245 131 -12 -4 -16 -3 -11 5
13 22 -213 120 -408 177 -99 28 -275 65 -313 65 -19 0 -23 -3 -16 -12 12 -15
-6 -128 -19 -128 -4 0 -8 33 -8 74 l0 73 -61 7 c-62 6 -359 5 -456 -1z m880
-116 c-7 -11 -23 2 -23 19 0 12 2 12 14 2 8 -7 12 -16 9 -21z m-928 2 c11 -17
0 -21 -40 -13 -26 5 -33 9 -23 15 18 12 56 11 63 -2z m-145 -49 c-19 -17 -41
-30 -50 -30 -26 0 -40 -21 -40 -59 -1 -29 -3 -33 -11 -19 -5 10 -6 30 -2 48 6
24 20 36 68 59 75 37 78 37 35 1z m1074 15 c-4 -8 -10 -12 -15 -9 -11 6 -2 24
11 24 5 0 7 -7 4 -15z m155 -33 c-11 -32 -29 -44 -29 -19 0 15 30 60 36 54 2
-2 -1 -18 -7 -35z m-174 -3 c-8 -12 -45 2 -45 17 0 11 5 11 25 2 13 -6 22 -14
20 -19z m-885 -9 c0 -5 -5 -10 -11 -10 -5 0 -7 5 -4 10 3 6 8 10 11 10 2 0 4
-4 4 -10z m-133 -26 c-3 -3 -12 -4 -19 -1 -8 3 -5 6 6 6 11 1 17 -2 13 -5z
m673 -20 c0 -14 3 -14 15 -4 13 10 15 9 15 -9 0 -25 -2 -25 -40 -6 -34 18 -39
35 -10 35 12 0 20 -7 20 -16z m306 5 c4 -7 -1 -16 -10 -21 -11 -6 -15 -16 -11
-29 5 -14 2 -19 -13 -19 -11 0 -23 7 -26 16 -9 22 -8 24 10 24 8 0 12 5 9 10
-3 6 -3 15 0 20 8 13 32 13 41 -1z m-1446 -9 c0 -5 -4 -10 -10 -10 -5 0 -10 5
-10 10 0 6 5 10 10 10 6 0 10 -4 10 -10z m1325 -21 c4 -6 5 -12 2 -15 -7 -8
-87 8 -87 17 0 13 78 11 85 -2z m175 -29 c8 -5 12 -12 9 -15 -8 -8 -39 5 -39
16 0 11 11 11 30 -1z m93 -40 c-16 -40 -33 -53 -33 -26 0 8 -3 22 -7 32 -4 11
-3 15 4 11 6 -4 16 0 23 8 23 27 29 16 13 -25z m193 25 c-11 -8 -34 -15 -50
-15 l-31 1 25 14 c14 8 36 14 50 14 24 0 24 0 6 -14z m-1527 -60 c0 -5 -4 -3
-9 5 -5 8 -9 22 -9 30 0 16 17 -16 18 -35z m-396 -35 c3 -14 1 -20 -6 -17 -7
2 -14 14 -15 26 -4 28 13 20 21 -9z m-299 -148 c4 -50 11 -92 15 -92 4 0 28
13 54 30 26 16 47 25 47 20 0 -12 -70 -60 -88 -60 -8 0 -13 -9 -12 -22 1 -13
1 -30 0 -38 -3 -24 -18 21 -19 56 -1 16 -5 34 -10 40 -5 5 -11 36 -14 69 -2
33 -8 68 -12 79 -6 14 -4 17 11 14 16 -3 20 -17 28 -96z m294 53 c-3 -3 -9 2
-12 12 -6 14 -5 15 5 6 7 -7 10 -15 7 -18z m-48 -3 c0 -5 -15 -19 -32 -32
l-33 -23 29 31 c31 34 36 37 36 24z m2480 -2 c0 -5 -4 -10 -10 -10 -5 0 -10 5
-10 10 0 6 5 10 10 10 6 0 10 -4 10 -10z m-22 -125 c-13 -29 -28 -33 -28 -7 0
22 8 32 26 32 11 0 11 -5 2 -25z m-53 -85 c-10 -11 -20 -18 -23 -15 -3 3 3 14
13 25 10 11 20 18 23 15 3 -3 -3 -14 -13 -25z m-2875 -24 c0 -3 -4 -8 -10 -11
-5 -3 -10 -1 -10 4 0 6 5 11 10 11 6 0 10 -2 10 -4z m-90 -47 c0 -6 -4 -7 -10
-4 -5 3 -10 11 -10 16 0 6 5 7 10 4 6 -3 10 -11 10 -16z m-30 -29 c0 -5 -5
-10 -11 -10 -5 0 -7 5 -4 10 3 6 8 10 11 10 2 0 4 -4 4 -10z m155 3 c-22 -6
-67 -33 -76 -47 -10 -13 -29 3 -29 25 0 16 4 18 18 10 12 -6 25 -5 42 5 14 7
34 13 45 12 19 0 20 0 0 -5z m-115 -63 c0 -5 -4 -10 -10 -10 -5 0 -10 5 -10
10 0 6 5 10 10 10 6 0 10 -4 10 -10z m90 0 c0 -5 -5 -10 -11 -10 -5 0 -7 5 -4
10 3 6 8 10 11 10 2 0 4 -4 4 -10z m-53 -60 c-14 -11 -29 -20 -34 -20 -10 1
39 39 51 40 5 0 -3 -9 -17 -20z m-237 -100 c0 -14 -14 -12 -28 2 -19 19 -14
30 8 18 11 -6 20 -15 20 -20z m200 20 c0 -5 -5 -10 -11 -10 -5 0 -7 5 -4 10 3
6 8 10 11 10 2 0 4 -4 4 -10z m-130 -59 c28 -12 36 -20 26 -24 -8 -3 -20 1
-26 9 -7 8 -21 14 -31 14 -11 0 -19 5 -19 10 0 13 1 13 50 -9z m-119 -148 c-8
-15 -10 -15 -11 -2 0 17 10 32 18 25 2 -3 -1 -13 -7 -23z m37 -51 c6 -18 -15
-14 -22 4 -4 10 -1 14 6 12 6 -2 14 -10 16 -16z m-93 -12 c3 -5 -1 -10 -9 -10
-8 0 -18 5 -21 10 -3 6 1 10 9 10 8 0 18 -4 21 -10z m55 -5 c0 -8 -2 -15 -4
-15 -2 0 -6 7 -10 15 -3 8 -1 15 4 15 6 0 10 -7 10 -15z m-147 -22 c-7 -2 -21
-2 -30 0 -10 3 -4 5 12 5 17 0 24 -2 18 -5z m18 -50 c-12 -20 -14 -14 -5 12 4
9 9 14 11 11 3 -2 0 -13 -6 -23z m94 -11 c0 -18 -20 -15 -23 4 -3 10 1 15 10
12 7 -3 13 -10 13 -16z m-50 -69 c7 18 45 24 45 7 0 -5 -8 -10 -18 -10 -10 0
-23 -5 -29 -11 -14 -14 -33 -3 -33 19 0 13 2 13 14 -4 14 -18 15 -18 21 -1z
m105 -38 c0 -3 -8 -15 -18 -26 -19 -19 -19 -19 -30 6 -11 24 -10 25 18 25 17
0 30 -2 30 -5z m-323 -250 c-4 -8 -11 -15 -17 -15 -7 0 -7 6 0 21 13 23 26 19
17 -6z m93 -25 c0 -5 -5 -10 -11 -10 -5 0 -7 5 -4 10 3 6 8 10 11 10 2 0 4 -4
4 -10z"/>
<path d="M5210 3804 c-37 -8 -224 -56 -232 -60 -5 -3 30 -146 46 -191 4 -8 25
-6 78 8 155 40 180 25 228 -134 11 -36 13 -37 33 -24 12 8 21 23 19 33 -2 16
-1 17 7 4 9 -12 14 -13 28 -2 26 17 65 33 70 28 3 -2 -9 -12 -26 -21 -17 -8
-31 -19 -31 -24 0 -5 -11 -12 -24 -15 -13 -3 -31 -17 -40 -31 -16 -24 -15 -31
15 -140 19 -70 35 -112 42 -108 6 4 7 1 3 -6 -5 -7 -5 -29 -1 -48 5 -28 9 -33
17 -22 7 10 8 8 4 -11 -3 -13 2 -53 11 -88 14 -58 14 -67 0 -96 -18 -38 -71
-67 -159 -86 -32 -7 -58 -17 -58 -22 0 -11 50 -192 54 -196 2 -1 15 2 29 7 20
8 27 18 30 48 l4 38 1 -37 c1 -21 3 -38 5 -38 1 0 35 9 75 20 84 23 195 76
187 89 -2 5 3 15 12 22 15 12 16 12 9 -6 -15 -41 73 59 92 104 25 58 36 121
23 121 -16 0 -55 -44 -73 -83 -10 -20 -23 -37 -29 -37 -6 0 -1 15 10 34 12 18
21 36 21 40 0 13 -28 5 -53 -14 -14 -11 -36 -20 -49 -19 l-23 0 25 11 c14 5
32 14 40 19 8 5 25 13 38 19 12 5 22 13 22 18 0 5 17 14 38 21 l39 13 -8 48
c-11 70 -31 130 -41 124 -5 -3 -6 5 -4 18 3 12 -11 85 -32 161 -30 108 -40
135 -50 125 -7 -7 -12 -7 -12 -2 0 6 5 15 10 20 8 8 5 32 -9 81 -56 204 -139
281 -310 288 -42 2 -87 1 -101 -1z m80 -34 c0 -5 -4 -10 -10 -10 -5 0 -10 5
-10 10 0 6 5 10 10 10 6 0 10 -4 10 -10z m74 -46 c4 -9 4 -19 1 -22 -3 -3 -5
0 -5 7 0 7 -4 9 -10 6 -5 -3 -10 1 -10 9 0 21 16 20 24 0z m100 -19 c-4 -8
-10 -15 -15 -15 -4 0 -6 7 -3 15 4 8 10 15 15 15 4 0 6 -7 3 -15z m-434 -20
c0 -8 -4 -15 -10 -15 -5 0 -10 7 -10 15 0 8 5 15 10 15 6 0 10 -7 10 -15z
m190 6 c0 -12 -29 -35 -36 -28 -11 10 5 37 21 37 8 0 15 -4 15 -9z m135 -31
c-3 -5 -11 -10 -16 -10 -6 0 -7 5 -4 10 3 6 11 10 16 10 6 0 7 -4 4 -10z m5
-65 c0 -25 -15 -24 -16 1 -1 13 2 21 7 18 5 -3 9 -11 9 -19z m125 -215 c3 -5
2 -10 -4 -10 -5 0 -13 5 -16 10 -3 6 -2 10 4 10 5 0 13 -4 16 -10z m40 -20 c3
-5 1 -10 -4 -10 -6 0 -11 5 -11 10 0 6 2 10 4 10 3 0 8 -4 11 -10z m5 -90 c-6
-11 -13 -20 -16 -20 -2 0 0 9 6 20 6 11 13 20 16 20 2 0 0 -9 -6 -20z m-115 0
c3 -5 -1 -10 -9 -10 -9 0 -16 5 -16 10 0 6 4 10 9 10 6 0 13 -4 16 -10z m207
-22 c-7 -7 -12 -8 -12 -2 0 14 12 26 19 19 2 -3 -1 -11 -7 -17z m-83 -42 c31
-17 59 -46 43 -46 -6 0 -12 5 -14 11 -2 6 -28 19 -58 29 -43 15 -49 19 -27 20
15 0 40 -6 56 -14z m21 -74 c0 -5 -9 -17 -20 -27 -19 -18 -20 -17 -20 2 0 11
3 23 7 26 9 10 33 9 33 -1z m111 -19 c28 -17 40 -43 19 -43 -5 0 -10 4 -10 9
0 5 -14 14 -30 21 -17 7 -33 17 -36 21 -9 15 26 10 57 -8z m-171 -12 c0 -6 -4
-13 -10 -16 -5 -3 -10 1 -10 9 0 9 5 16 10 16 6 0 10 -4 10 -9z m0 -151 c0 -5
-4 -10 -10 -10 -5 0 -10 5 -10 10 0 6 5 10 10 10 6 0 10 -4 10 -10z m-180
-350 c0 -5 -5 -10 -11 -10 -5 0 -7 5 -4 10 3 6 8 10 11 10 2 0 4 -4 4 -10z"/>
<path d="M4895 3723 c-11 -3 -31 -10 -45 -16 -14 -6 -34 -11 -45 -12 -30 -3
-149 -36 -156 -43 -4 -4 12 -74 35 -157 38 -139 43 -150 64 -148 19 2 22 -2
22 -33 0 -29 -3 -35 -16 -30 -11 4 -14 1 -10 -12 3 -9 19 -70 36 -135 31 -117
51 -157 79 -157 11 0 11 -3 -2 -18 -10 -10 -17 -26 -17 -35 0 -8 22 -98 49
-199 27 -101 54 -202 60 -225 l11 -41 38 9 c20 6 55 16 77 23 22 7 65 19 95
26 67 15 76 20 59 31 -10 6 -11 11 -3 17 8 5 3 37 -17 107 -15 55 -85 315
-155 578 -70 262 -130 476 -133 476 -3 -1 -15 -4 -26 -6z m60 -153 c3 -5 1
-10 -4 -10 -6 0 -11 5 -11 10 0 6 2 10 4 10 3 0 8 -4 11 -10z m-85 -70 c0 -5
-2 -10 -4 -10 -3 0 -8 5 -11 10 -3 6 -1 10 4 10 6 0 11 -4 11 -10z m-54 -105
c-26 -19 -42 -19 -26 0 7 8 20 15 29 15 13 -1 13 -3 -3 -15z m-36 -149 c0 -3
-4 -8 -10 -11 -5 -3 -10 -1 -10 4 0 6 5 11 10 11 6 0 10 -2 10 -4z m165 -96
c37 -30 37 -30 14 -39 -21 -7 -25 -5 -29 17 -3 14 -11 27 -18 30 -7 2 -10 -2
-6 -12 3 -9 1 -16 -5 -16 -12 0 -15 32 -4 43 9 9 6 11 48 -23z m-44 -217 c13
-15 12 -15 -8 -4 -24 12 -29 21 -14 21 5 0 15 -7 22 -17z m49 -46 c0 -7 9 -18
20 -25 11 -7 20 -21 20 -32 0 -17 -3 -18 -24 -9 -17 8 -25 21 -28 45 -2 19 0
34 4 34 4 0 8 -6 8 -13z m155 -127 c17 -19 17 -19 -34 -17 -51 2 -52 2 -30 20
27 22 42 22 64 -3z m47 -2 c-7 -7 -12 -8 -12 -2 0 14 12 26 19 19 2 -3 -1 -11
-7 -17z m-217 -7 c-3 -6 -11 -11 -17 -11 -6 0 -6 6 2 15 14 17 26 13 15 -4z
m116 -68 c-9 -16 -10 -14 -11 12 0 21 3 26 11 18 8 -8 8 -16 0 -30z m119 -27
c0 -3 -4 -8 -10 -11 -5 -3 -10 -1 -10 4 0 6 5 11 10 11 6 0 10 -2 10 -4z"/>
<path d="M4390 3588 c-41 -12 -76 -25 -78 -30 -2 -4 -10 -8 -18 -8 -7 0 -20
-13 -29 -30 -9 -17 -21 -27 -29 -24 -34 13 -20 -57 89 -466 63 -235 115 -433
115 -440 0 -29 -34 -79 -66 -96 -18 -10 -34 -22 -34 -25 0 -4 9 -35 19 -70 10
-35 22 -76 25 -91 6 -27 6 -27 47 -13 84 30 180 89 224 137 60 66 79 127 73
234 -5 90 -12 109 -33 81 -8 -11 -19 -15 -30 -10 -17 6 -16 7 3 14 42 16 41
36 -9 219 -26 96 -75 280 -109 408 -35 130 -68 232 -74 231 -6 0 -45 -10 -86
-21z m70 -23 c-7 -8 -17 -15 -23 -15 -5 0 -2 9 8 20 21 23 35 19 15 -5z m-136
-79 c-6 -15 -8 -14 -19 6 -15 29 -8 45 12 26 8 -8 11 -22 7 -32z m6 -322 c0
-8 -6 -11 -15 -8 -8 4 -15 15 -15 26 0 17 3 18 15 8 8 -7 15 -19 15 -26z m53
-67 c-19 -11 -21 -8 -30 34 l-6 34 25 -30 c22 -25 24 -31 11 -38z m47 39 c0
-3 -4 -8 -10 -11 -5 -3 -10 -1 -10 4 0 6 5 11 10 11 6 0 10 -2 10 -4z m-30
-206 c0 -5 -5 -10 -11 -10 -5 0 -7 5 -4 10 3 6 8 10 11 10 2 0 4 -4 4 -10z
m135 -21 c11 -17 -1 -21 -15 -4 -8 9 -8 15 -2 15 6 0 14 -5 17 -11z m25 -99
c0 -5 -5 -10 -11 -10 -5 0 -7 5 -4 10 3 6 8 10 11 10 2 0 4 -4 4 -10z m160
-140 c0 -5 -5 -10 -11 -10 -5 0 -7 5 -4 10 3 6 8 10 11 10 2 0 4 -4 4 -10z
m-140 -269 c0 -5 -17 -19 -37 -30 l-38 -22 33 31 c34 32 42 36 42 21z"/>
<path d="M4218 3543 c-12 -3 -18 -14 -18 -31 l0 -27 20 25 c16 21 26 43 18 39
-2 -1 -11 -3 -20 -6z"/>
<path d="M3770 3421 c-80 -23 -96 -31 -101 -52 -7 -24 -7 -24 -8 -1 -1 19 -5
21 -28 16 -16 -4 -30 -8 -31 -10 -8 -6 239 -907 258 -945 32 -63 95 -124 153
-150 45 -21 67 -24 162 -24 61 0 122 4 137 8 23 6 25 10 19 34 -5 16 -13 27
-20 26 -13 -3 -15 13 -2 21 5 3 2 30 -7 61 -15 53 -17 55 -49 55 -39 0 -88 22
-101 46 -8 15 -13 14 -41 -7 -17 -13 -35 -35 -38 -49 -4 -13 -16 -33 -28 -42
-12 -10 -25 -31 -28 -48 -9 -42 -24 -38 -19 5 3 21 10 35 18 35 15 0 34 30 34
57 0 10 9 29 20 43 27 34 26 53 -2 45 -21 -5 -21 -4 5 17 32 28 34 51 8 95
-11 17 -17 34 -14 37 17 17 2 88 -82 406 -63 234 -97 346 -106 347 -8 1 -57
-11 -109 -26z m100 -191 c0 -5 -5 -10 -11 -10 -5 0 -7 5 -4 10 3 6 8 10 11 10
2 0 4 -4 4 -10z m60 -200 c0 -5 -5 -10 -11 -10 -5 0 -7 5 -4 10 3 6 8 10 11
10 2 0 4 -4 4 -10z m70 -99 c-5 -11 -15 -23 -22 -27 -7 -5 -8 -2 -3 7 21 37
44 55 25 20z m0 -410 c0 -11 -31 -24 -39 -16 -3 3 1 10 9 15 19 12 30 12 30 1z
m-113 -64 c-6 -20 -27 -19 -27 2 0 14 5 19 15 14 9 -3 14 -10 12 -16z"/>
<path d="M3070 3233 c-69 -18 -150 -40 -179 -48 -30 -8 -57 -18 -60 -22 -4 -5
-4 -292 -1 -639 l5 -631 135 36 135 36 3 68 c2 43 -1 67 -7 63 -14 -9 -25 14
-12 27 12 12 16 355 3 372 -4 6 -16 11 -28 12 -28 3 -46 -36 -50 -107 -1 -32
-8 -56 -15 -59 -9 -3 -10 9 -4 50 4 30 8 68 9 84 1 29 0 30 -41 28 -24 -1 -43
3 -43 8 0 6 20 9 47 8 46 -3 47 -2 65 36 l18 40 -3 -35 c-2 -30 1 -35 22 -38
l24 -4 -6 217 c-3 119 -4 215 -2 213 2 -2 53 -102 113 -223 72 -144 106 -222
98 -226 -6 -3 -42 -14 -79 -24 l-69 -18 4 -98 c1 -54 6 -100 10 -104 14 -14
78 16 84 40 3 13 11 29 18 34 18 15 56 2 56 -20 0 -22 0 -22 35 -9 14 5 24 14
21 18 -2 4 -1 14 5 22 7 12 9 10 9 -7 0 -13 4 -23 9 -23 5 0 33 -44 62 -97 74
-140 65 -135 179 -105 65 17 101 33 115 48 11 13 30 24 42 26 21 3 18 11 -53
133 -42 72 -85 146 -96 165 -11 19 -57 100 -101 178 -45 79 -83 137 -85 128
-2 -9 -9 -16 -15 -16 -8 0 -13 -24 -14 -68 -1 -50 -8 -81 -27 -119 -15 -29
-26 -68 -26 -91 0 -23 -4 -44 -10 -47 -20 -13 -9 -24 27 -27 20 -2 38 -9 41
-17 3 -9 -2 -11 -17 -6 -16 5 -23 1 -29 -16 -9 -23 -9 -23 -16 4 -9 36 -35 36
-33 0 1 -20 -3 -28 -17 -31 -17 -4 -18 0 -12 39 4 24 12 49 17 56 13 15 2 73
-13 73 -6 0 -8 3 -5 6 4 4 13 1 22 -6 17 -14 18 -13 34 68 6 29 20 72 31 94
11 23 20 57 20 76 0 18 5 42 11 54 13 23 -2 67 -32 94 -10 9 -19 23 -19 30 0
10 -54 107 -176 315 -8 14 -22 12 -134 -18z m68 -84 c2 -36 -9 -26 -23 20 -5
17 -4 22 6 19 8 -3 15 -20 17 -39z m152 -164 c-7 -8 -10 -21 -7 -29 3 -8 -1
-17 -9 -20 -21 -8 -18 41 4 53 24 14 26 13 12 -4z m-255 -45 c3 -5 1 -10 -4
-10 -6 0 -11 5 -11 10 0 6 2 10 4 10 3 0 8 -4 11 -10z m183 -10 c35 0 16 -17
-23 -22 -24 -2 -31 -9 -36 -33 -6 -28 -7 -27 -8 11 -1 45 6 57 27 49 7 -3 25
-5 40 -5z m59 -70 c-8 -66 -30 -160 -37 -160 -4 0 -7 20 -9 45 -1 31 2 47 12
51 10 3 13 19 12 52 -3 51 0 62 17 62 7 0 9 -17 5 -50z m-231 -127 c-8 -15
-15 -22 -16 -15 0 17 20 55 27 49 2 -3 -2 -18 -11 -34z m-166 -265 c-1 -28 -2
-30 -11 -15 -6 10 -8 25 -5 33 9 24 16 16 16 -18z m-3 -195 c-3 -10 -5 -2 -5
17 0 19 2 27 5 18 2 -10 2 -26 0 -35z m-22 -213 c3 -5 1 -10 -4 -10 -6 0 -11
5 -11 10 0 6 2 10 4 10 3 0 8 -4 11 -10z m196 -43 c-16 -16 -26 0 -10 19 9 11
15 12 17 4 2 -6 -1 -17 -7 -23z m-84 7 c-3 -3 -12 -4 -19 -1 -8 3 -5 6 6 6 11
1 17 -2 13 -5z m3 -55 c0 -5 -4 -9 -10 -9 -5 0 -10 7 -10 16 0 8 5 12 10 9 6
-3 10 -10 10 -16z"/>
<path d="M2153 2973 c-18 -2 -33 -9 -33 -16 0 -8 -3 -8 -11 0 -11 11 -63 4
-154 -23 -42 -12 -55 -20 -51 -31 3 -8 6 -21 6 -29 0 -8 8 -17 18 -21 9 -3 38
-28 63 -55 32 -34 40 -48 28 -48 -17 0 -69 53 -69 71 0 5 -6 9 -14 9 -12 0
-11 -8 1 -52 9 -29 16 -54 17 -55 1 -1 26 4 56 13 74 20 125 20 156 -1 24 -16
27 -16 45 1 24 21 24 30 -1 79 -11 21 -18 40 -16 43 6 5 46 -22 46 -31 0 -5
16 -24 35 -43 19 -18 35 -43 35 -54 0 -26 -16 -26 -30 0 -14 26 -37 25 -61 -2
-22 -27 -24 -38 -6 -38 6 0 13 -12 13 -27 1 -16 3 -47 5 -70 6 -77 -35 -116
-149 -143 -41 -9 -52 -16 -48 -29 3 -9 12 -45 21 -81 24 -98 30 -102 96 -83
30 9 57 21 61 27 6 8 8 7 8 -1 0 -7 11 -13 24 -13 27 0 71 -32 88 -63 6 -12
21 -58 33 -101 19 -72 24 -79 47 -80 33 -2 67 -34 47 -46 -11 -7 -10 -10 4
-16 23 -9 22 -24 -3 -24 -12 0 -20 7 -20 16 0 15 -26 43 -41 44 -8 0 33 -147
50 -177 6 -13 19 -23 28 -23 8 0 75 16 148 36 131 36 133 37 120 58 -8 12 -34
98 -59 191 -54 201 -77 255 -128 301 -41 37 -58 42 -58 19 0 -8 -4 -15 -8 -15
-4 0 -13 -13 -19 -30 -6 -16 -16 -30 -22 -30 -15 0 -14 16 4 51 17 32 13 49
-11 49 -22 0 -16 13 16 35 40 26 70 90 70 148 0 100 -44 229 -95 277 -24 23
-37 16 -13 -8 9 -9 7 -12 -10 -12 -34 0 -52 20 -38 43 14 22 0 32 -66 47 -67
14 -118 18 -155 13z m167 -38 c0 -8 -2 -15 -4 -15 -2 0 -6 7 -10 15 -3 8 -1
15 4 15 6 0 10 -7 10 -15z m-110 1 c0 -3 -4 -8 -10 -11 -5 -3 -10 -1 -10 4 0
6 5 11 10 11 6 0 10 -2 10 -4z m-30 -57 c0 -6 -4 -7 -10 -4 -5 3 -10 11 -10
16 0 6 5 7 10 4 6 -3 10 -11 10 -16z m250 -324 c15 -16 19 -25 10 -25 -15 0
-50 29 -50 42 0 15 16 8 40 -17z m36 -72 c-7 -7 -26 7 -26 19 0 6 6 6 15 -2 9
-7 13 -15 11 -17z m-66 6 c0 -4 -7 -12 -15 -19 -8 -7 -15 -10 -15 -7 0 3 -3
12 -6 21 -4 11 0 14 15 13 12 -1 21 -4 21 -8z m-71 -50 c-18 -11 -31 11 -17
29 10 11 13 10 21 -4 6 -11 5 -19 -4 -25z m-57 -74 c-15 -24 -33 -45 -39 -45
-19 0 -16 7 19 51 42 53 54 50 20 -6z m268 -16 c0 -5 -4 -9 -10 -9 -5 0 -10 7
-10 16 0 8 5 12 10 9 6 -3 10 -10 10 -16z m-151 -173 c-25 -42 -33 -47 -19
-10 17 44 33 69 37 58 2 -6 -6 -28 -18 -48z m125 -278 c5 -9 7 -21 2 -25 -4
-4 -12 0 -17 10 -6 9 -19 17 -30 17 -12 0 -17 4 -14 11 10 15 46 7 59 -13z
m57 -50 c9 -16 8 -19 -3 -13 -28 16 -38 28 -32 36 7 12 21 3 35 -23z"/>
<path d="M1651 2854 c-46 -12 -85 -24 -86 -26 -7 -7 97 -374 109 -386 7 -7 22
-14 34 -15 14 -1 22 -8 22 -20 0 -18 -1 -19 -26 -2 -14 9 -27 15 -29 13 -4 -3
39 -166 52 -198 3 -8 7 -25 9 -37 1 -12 10 -45 18 -75 9 -29 40 -144 70 -256
30 -112 57 -206 60 -209 3 -3 13 -2 23 2 10 4 25 9 33 10 26 3 214 55 219 60
2 3 -1 22 -7 42 -6 21 -29 110 -52 198 -73 283 -78 295 -104 295 -13 0 -26 6
-29 14 -7 18 1 26 25 26 14 0 18 5 14 18 -2 9 -35 130 -71 267 -37 138 -71
252 -76 253 -5 2 -9 12 -9 23 0 28 -45 26 -55 -3 -8 -22 -8 -22 -12 5 -5 33
-17 33 -132 1z m149 -100 c0 -8 -4 -14 -10 -14 -5 0 -10 9 -10 21 0 11 5 17
10 14 6 -3 10 -13 10 -21z m-100 -74 c-6 -11 -13 -20 -16 -20 -2 0 0 9 6 20 6
11 13 20 16 20 2 0 0 -9 -6 -20z m40 -24 c0 -3 -4 -8 -10 -11 -5 -3 -10 -1
-10 4 0 6 5 11 10 11 6 0 10 -2 10 -4z m180 -158 c0 -5 -5 -8 -11 -8 -5 0 -7
5 -4 10 3 6 1 10 -5 10 -6 0 -8 5 -4 11 6 11 23 -6 24 -23z m-40 -17 c0 -12
-20 -25 -27 -18 -7 7 6 27 18 27 5 0 9 -4 9 -9z m-44 -58 c-10 -10 -19 5 -10
18 6 11 8 11 12 0 2 -7 1 -15 -2 -18z m74 7 c0 -5 -5 -10 -11 -10 -5 0 -7 5
-4 10 3 6 8 10 11 10 2 0 4 -4 4 -10z m-156 -107 c-22 -54 -35 -63 -23 -17 9
32 23 53 36 54 1 0 -5 -17 -13 -37z m106 -13 c0 -5 -4 -10 -9 -10 -5 0 -16 -3
-25 -6 -11 -4 -16 -1 -16 10 0 10 9 16 25 16 14 0 25 -4 25 -10z m90 -10 c0
-5 -4 -10 -10 -10 -5 0 -10 5 -10 10 0 6 5 10 10 10 6 0 10 -4 10 -10z m20
-580 c0 -5 -10 -10 -22 -10 -19 0 -20 2 -8 10 19 13 30 13 30 0z"/>
<path d="M1417 2778 c-13 -19 -16 -20 -16 -6 -1 15 -5 16 -27 8 -14 -6 -33
-17 -41 -26 -10 -9 -18 -12 -22 -5 -6 9 -214 -39 -228 -53 -3 -3 4 -39 15 -80
12 -41 22 -81 22 -90 0 -8 4 -17 9 -20 11 -7 121 24 121 34 0 5 9 6 19 3 10
-3 30 1 42 8 13 7 36 14 50 15 46 3 139 34 138 47 -1 7 -4 23 -8 36 -7 25 -7
25 -46 -16 -22 -23 -53 -47 -69 -53 -28 -10 -27 -7 20 43 27 30 57 55 67 56
21 1 21 4 2 69 -17 58 -25 62 -48 30z m-32 -48 c-3 -5 -10 -10 -16 -10 -5 0
-9 5 -9 10 0 6 7 10 16 10 8 0 12 -4 9 -10z m-165 -40 c-6 -11 -13 -20 -16
-20 -2 0 0 9 6 20 6 11 13 20 16 20 2 0 0 -9 -6 -20z m-4 -49 c-3 -5 -15 -11
-26 -14 -17 -4 -19 -3 -9 9 12 15 44 20 35 5z m81 -23 c-3 -8 -6 -5 -6 6 -1
11 2 17 5 13 3 -3 4 -12 1 -19z"/>
<path d="M965 2669 c-33 -10 -62 -18 -65 -19 -3 0 4 -7 14 -15 16 -12 17 -15
4 -15 -8 0 -21 6 -27 14 -9 11 -20 12 -39 6 -15 -5 -47 -14 -70 -20 -33 -8
-42 -15 -38 -27 4 -8 33 -117 67 -241 33 -124 67 -235 75 -246 8 -11 14 -15
14 -8 0 6 7 12 16 12 10 0 14 -6 10 -15 -6 -18 3 -19 40 -5 30 12 134 3 134
-11 0 -4 -29 -6 -64 -2 -69 6 -82 -1 -67 -39 5 -14 6 -30 2 -36 -4 -8 -13 2
-21 24 -13 33 -36 54 -57 54 -5 0 27 -135 71 -299 44 -165 83 -298 86 -296 4
3 5 -6 3 -18 -8 -50 5 -51 153 -11 76 20 140 38 141 39 2 1 -96 371 -132 501
-11 38 -21 54 -37 59 -20 6 -21 8 -5 12 15 4 17 11 11 36 -10 51 -153 579
-156 581 -2 1 -30 -6 -63 -15z m-55 -102 c0 -2 -11 -14 -25 -27 -27 -25 -35
-12 -9 14 14 14 34 22 34 13z m103 -604 c-3 -7 -11 -13 -19 -13 -15 0 -18 18
-8 44 6 15 8 15 19 -1 7 -9 11 -23 8 -30z m30 -43 c3 -11 1 -18 -4 -14 -5 3
-9 12 -9 20 0 20 7 17 13 -6z m97 -15 c0 -8 -4 -15 -10 -15 -5 0 -7 7 -4 15 4
8 8 15 10 15 2 0 4 -7 4 -15z m-60 -30 c0 -8 3 -15 8 -15 18 -1 32 -18 26 -34
-6 -16 -9 -15 -30 5 -24 23 -33 59 -14 59 6 0 10 -7 10 -15z m-90 -45 c0 -5
-2 -10 -4 -10 -3 0 -8 5 -11 10 -3 6 -1 10 4 10 6 0 11 -4 11 -10z m160 -45
c0 -8 -4 -15 -10 -15 -5 0 -10 7 -10 15 0 8 5 15 10 15 6 0 10 -7 10 -15z m21
-130 c1 -17 -18 -17 -25 0 -4 11 -1 15 10 13 8 -2 15 -7 15 -13z m39 -130 c-7
-9 -15 -13 -18 -10 -3 2 1 11 8 20 7 9 15 13 18 10 3 -2 -1 -11 -8 -20z m-120
-9 c0 -3 -4 -8 -10 -11 -5 -3 -10 -1 -10 4 0 6 5 11 10 11 6 0 10 -2 10 -4z"/>
<path d="M4111 2594 c0 -11 3 -14 6 -6 3 7 2 16 -1 19 -3 4 -6 -2 -5 -13z"/>
<path d="M5473 2398 c-40 -12 -73 -27 -73 -33 0 -7 -15 -20 -34 -29 -43 -20
-52 -20 -36 -1 18 22 10 25 -35 14 l-40 -10 -18 -91 c-18 -95 -16 -107 24
-108 8 0 30 -16 49 -35 19 -19 29 -35 23 -35 -7 0 -15 5 -19 11 -5 8 -9 8 -14
-1 -5 -8 -10 -3 -14 13 -4 16 -17 29 -38 36 -17 6 -33 10 -34 8 -7 -6 -43
-131 -40 -135 2 -2 18 4 35 12 16 9 39 16 51 16 12 0 20 7 21 18 0 11 5 6 14
-13 10 -23 21 -31 46 -35 23 -3 35 -11 38 -25 3 -16 1 -17 -11 -7 -9 7 -28 10
-45 6 -25 -5 -31 -2 -36 16 -5 19 -11 22 -35 17 -64 -13 -97 -43 -126 -116
-39 -99 -137 -281 -202 -373 -43 -62 -54 -85 -50 -104 4 -14 2 -24 -4 -24 -5
0 -10 5 -10 10 0 22 -18 7 -85 -71 -39 -45 -112 -117 -162 -161 -51 -44 -90
-84 -87 -89 3 -5 -2 -9 -11 -9 -9 0 -43 -19 -76 -42 -53 -38 -60 -46 -54 -68
13 -51 17 -100 7 -100 -5 0 -12 21 -15 46 -7 66 -16 70 -74 35 -271 -167 -678
-281 -1001 -281 -73 0 -80 -2 -85 -21 -6 -23 -27 -17 -27 7 0 8 -4 14 -10 14
-5 0 -10 -4 -10 -10 0 -5 -4 -10 -10 -10 -5 0 -10 7 -10 15 0 11 -11 15 -37
15 -61 0 -219 28 -342 61 -193 51 -364 125 -538 233 l-93 57 -29 -22 c-15 -11
-37 -19 -47 -17 -17 4 -16 6 6 15 14 6 31 18 38 26 10 12 6 19 -21 40 -30 23
-34 24 -46 9 -11 -16 -12 -16 -7 1 7 22 -272 300 -293 292 -11 -4 -11 -2 -3 8
7 8 10 16 7 19 -8 8 -305 -75 -305 -85 0 -17 110 -148 215 -255 108 -112 181
-175 315 -271 l85 -61 22 27 c26 33 42 24 23 -13 -13 -24 -12 -27 10 -44 38
-29 270 -143 277 -136 4 3 14 -1 23 -9 15 -14 175 -75 233 -89 20 -5 27 -3 27
9 0 8 4 15 9 15 5 0 7 -8 4 -18 -4 -16 9 -21 94 -40 124 -28 286 -50 383 -53
72 -2 75 -2 78 21 3 19 1 22 -10 13 -10 -9 -13 -3 -15 33 -2 34 2 44 13 44 11
0 13 -6 9 -20 -4 -11 -2 -20 4 -20 5 0 13 -16 17 -35 3 -19 10 -38 15 -40 11
-7 273 12 371 26 72 11 78 14 78 36 0 13 5 23 10 23 6 0 10 -6 10 -14 0 -25
22 -24 131 5 303 79 621 241 864 439 42 34 82 71 88 81 7 11 17 19 24 19 12 0
189 188 187 199 -1 3 -5 16 -9 29 -6 22 -5 22 15 10 18 -11 23 -10 36 7 14 18
13 20 -3 23 -38 8 -39 25 -1 19 l37 -6 75 112 c74 112 169 284 202 365 l17 43
-29 30 c-15 16 -23 29 -17 29 5 0 18 -9 28 -20 10 -11 21 -17 26 -14 13 8 85
240 113 364 29 131 43 250 30 249 -5 0 -42 -10 -81 -21z m-33 -58 c0 -5 -4
-10 -10 -10 -5 0 -10 5 -10 10 0 6 5 10 10 10 6 0 10 -4 10 -10z m-20 -30 c0
-5 -4 -10 -10 -10 -5 0 -10 5 -10 10 0 6 5 10 10 10 6 0 10 -4 10 -10z m-60
-14 c0 -3 -4 -8 -10 -11 -5 -3 -10 -1 -10 4 0 6 5 11 10 11 6 0 10 -2 10 -4z
m140 -166 c0 -5 -5 -10 -11 -10 -5 0 -7 5 -4 10 3 6 8 10 11 10 2 0 4 -4 4
-10z m-120 -14 c0 -3 -4 -8 -10 -11 -5 -3 -10 -1 -10 4 0 6 5 11 10 11 6 0 10
-2 10 -4z m8 -85 c31 -27 27 -33 -8 -13 -16 9 -30 20 -30 25 0 12 14 7 38 -12z
m-196 -93 c-7 -7 -12 -8 -12 -2 0 14 12 26 19 19 2 -3 -1 -11 -7 -17z m218 2
c0 -5 -2 -10 -4 -10 -3 0 -8 5 -11 10 -3 6 -1 10 4 10 6 0 11 -4 11 -10z
m-560 -611 c-7 -11 -14 -19 -16 -16 -7 7 7 37 17 37 6 0 5 -9 -1 -21z m145
-41 c10 -34 12 -58 5 -58 -9 0 -30 47 -30 65 0 23 17 18 25 -7z m-155 -12 c0
-3 -4 -8 -10 -11 -5 -3 -10 -1 -10 4 0 6 5 11 10 11 6 0 10 -2 10 -4z m-3190
-52 c0 -8 -4 -14 -10 -14 -5 0 -21 -17 -35 -37 -14 -21 -25 -33 -25 -28 0 13
23 77 33 92 10 15 37 6 37 -13z m3290 -24 c0 -5 -5 -10 -11 -10 -5 0 -7 5 -4
10 3 6 8 10 11 10 2 0 4 -4 4 -10z m-233 -72 c-3 -7 -5 -2 -5 12 0 14 2 19 5
13 2 -7 2 -19 0 -25z m-128 -57 c7 -5 11 -13 7 -19 -8 -13 -46 -22 -46 -11 0
5 8 9 18 10 10 0 12 3 5 6 -14 5 -18 23 -5 23 4 0 13 -4 21 -9z m101 -27 c0
-8 -4 -12 -10 -9 -5 3 -10 10 -10 16 0 5 5 9 10 9 6 0 10 -7 10 -16z m-2670
-44 c0 -5 -8 -10 -17 -10 -15 0 -16 2 -3 10 19 12 20 12 20 0z m-96 -95 c-29
-22 -42 -17 -15 6 13 11 26 17 29 14 3 -3 -3 -12 -14 -20z m2508 -106 c12 -55
0 -67 -22 -23 -21 40 -20 69 2 62 7 -3 16 -20 20 -39z m-238 -14 c3 -9 0 -15
-9 -15 -8 0 -15 7 -15 15 0 8 4 15 9 15 5 0 11 -7 15 -15z m-227 -57 c-3 -7
-5 -2 -5 12 0 14 2 19 5 13 2 -7 2 -19 0 -25z m-1397 -8 c0 -5 -7 -10 -15 -10
-8 0 -15 5 -15 10 0 6 7 10 15 10 8 0 15 -4 15 -10z m1874 -19 c3 -5 -1 -12
-10 -15 -20 -8 -29 -1 -19 13 8 13 22 14 29 2z m-649 -12 c11 -17 -1 -21 -15
-4 -8 9 -8 15 -2 15 6 0 14 -5 17 -11z m-848 -71 c-2 -13 -4 -5 -4 17 -1 22 1
32 4 23 2 -10 2 -28 0 -40z m1409 25 c-7 -7 -26 7 -26 19 0 6 6 6 15 -2 9 -7
13 -15 11 -17z m-1826 -28 c0 -13 -4 -27 -10 -30 -6 -3 -7 1 -4 10 5 12 2 16
-12 13 -24 -4 -31 29 -7 34 26 6 33 0 33 -27z m219 -7 c-8 -28 -29 -62 -29
-46 0 10 30 78 34 78 3 0 0 -14 -5 -32z m36 -38 c-4 -12 -9 -19 -12 -17 -3 3
-2 15 2 27 4 12 9 19 12 17 3 -3 2 -15 -2 -27z m1151 -27 c-7 -7 -26 7 -26 19
0 6 6 6 15 -2 9 -7 13 -15 11 -17z m-1358 -49 c-10 -10 -28 6 -28 24 0 15 1
15 17 -1 9 -9 14 -19 11 -23z m672 16 c0 -5 -5 -10 -11 -10 -5 0 -7 5 -4 10 3
6 8 10 11 10 2 0 4 -4 4 -10z m497 -22 c-3 -8 -6 -5 -6 6 -1 11 2 17 5 13 3
-3 4 -12 1 -19z m-290 -62 c-2 -6 -11 1 -21 16 -10 15 -15 32 -11 38 8 13 38
-37 32 -54z m383 35 c0 -5 -7 -12 -16 -15 -24 -9 -28 -7 -14 9 14 17 30 20 30
6z m-800 -5 c0 -3 -4 -8 -10 -11 -5 -3 -10 -1 -10 4 0 6 5 11 10 11 6 0 10 -2
10 -4z"/>
<path d="M5360 2360 c0 -5 5 -10 10 -10 6 0 10 5 10 10 0 6 -4 10 -10 10 -5 0
-10 -4 -10 -10z"/>
<path d="M1382 2274 c-90 -24 -168 -46 -172 -49 -5 -3 -5 -18 0 -33 5 -15 14
-46 20 -69 9 -34 15 -43 33 -43 20 -1 21 -2 5 -14 -10 -7 -18 -19 -18 -25 0
-15 49 -7 94 15 16 7 32 11 37 8 5 -3 12 3 15 13 6 22 47 106 54 113 3 3 16
22 30 42 13 20 32 39 41 41 14 4 14 0 -3 -27 -35 -56 -98 -165 -98 -169 0 -4
181 41 187 47 5 4 -42 162 -50 167 -5 4 -6 12 -3 18 10 15 13 16 -172 -35z
m-42 -204 c0 -5 -7 -10 -15 -10 -8 0 -15 5 -15 10 0 6 7 10 15 10 8 0 15 -4
15 -10z"/>
<path d="M3795 2163 c-11 -3 -24 -10 -30 -15 -7 -7 -2 -8 15 -3 52 15 64 30
15 18z"/>
</g>
</svg>
